<svg xmlns="http://www.w3.org/2000/svg" width="37.252" height="49.728" viewBox="0 0 37.252 49.728">
  <g id="Group_3502" data-name="Group 3502" transform="translate(-40.612 669.118)">
    <path id="Path_4817" data-name="Path 4817" d="M132.268-579.365h0a1.885,1.885,0,0,0,.879-.4.4.4,0,0,0,.284-.191h0l.006,0h0a3.244,3.244,0,0,0,1.243-1.292,1.219,1.219,0,0,0,.388-.842,2.141,2.141,0,0,0,.374-1.407h0a.78.78,0,0,0,.072-.488q0-13.729-.013-27.459a4.714,4.714,0,0,0-2.349-4.2c-.391-.246-.573-.264-.709.262-.748,2.873-1.547,5.734-2.286,8.609-.134.52-.313.7-.867.693-4.139-.021-8.277,0-12.416,0h0c-.982-.008-1.965-.027-2.947-.017-.367,0-.754-.111-1.1.119h0a1.176,1.176,0,0,0-.74.511,1.127,1.127,0,0,0-.39.885.692.692,0,0,0,.008.621.327.327,0,0,0,.089.312.4.4,0,0,0,.158.321h0c.278.4.568.789,1.138.753l.048.025.054,0h0a1.618,1.618,0,0,0,.8.088c3.1,0,6.2.005,9.3-.009a6.964,6.964,0,0,1,3.536.941l.468.251h0a9.572,9.572,0,0,1,2.177,2.267,14.358,14.358,0,0,1,.889,2.137h0a13.03,13.03,0,0,1,.146,2.5,7.17,7.17,0,0,0-.26,1.265h0l-.881,1.891-.258.376-.781.871-.365.365h0a14.516,14.516,0,0,1-2.161,1.271.1.1,0,0,0-.1.023h0a8.45,8.45,0,0,1-2.65.41q-6.727-.016-13.454-.008c-.217,0-.459-.1-.654.087h0a.385.385,0,0,0-.07.1q-1.11,4.1-2.211,8.212c-.034.129-.173.334.111.394,1.841.009,3.682.027,5.523.026,2.2,0,4.393-.019,6.59-.03a14.879,14.879,0,0,0,2.145,0,18.907,18.907,0,0,0,2.4,0,20.65,20.65,0,0,0,2.524,0,10.027,10.027,0,0,0,1.767,0,.087.087,0,0,1,.034-.034l-.034.034.631,0a21.3,21.3,0,0,0,2.775-.014.7.7,0,0,0,.561-.1h0a.773.773,0,0,0,.576-.143Z" transform="translate(-57.656 -46.577)" fill="#fff"/>
    <path id="Path_4818" data-name="Path 4818" d="M90.535-664.3c.467,0,.5-.349.494-.713-.008-.692,0-1.383,0-2.075a24.414,24.414,0,0,1,1.627,2.39.7.7,0,0,0,.839.381c.354-.093.413-.394.415-.7.008-1.071.007-2.142,0-3.214,0-.358-.121-.62-.55-.595-.413.024-.441.309-.439.624,0,.733,0,1.466,0,2.2l-.116.048c-.514-.831-1.038-1.656-1.537-2.5a.7.7,0,0,0-.851-.352c-.365.092-.383.4-.383.706,0,1.029,0,2.059,0,3.088C90.029-664.644,90.07-664.3,90.535-664.3Z" transform="translate(-43.177 -0.246)" fill="#fff"/>
    <path id="Path_4819" data-name="Path 4819" d="M127.312-664.719a2.19,2.19,0,0,0,2.55-.134c.134.251.21.544.549.437.278-.088.262-.34.259-.577-.006-.441,0-.881,0-1.322,0-.227-.046-.441-.322-.451-.461-.016-.924-.009-1.386,0a.3.3,0,0,0-.316.318.334.334,0,0,0,.249.385,3.31,3.31,0,0,0,.435.044c.116.013.274-.059.335.085s-.041.278-.133.4a1.129,1.129,0,0,1-1.86-.183,2.091,2.091,0,0,1-.136-1.472,1.1,1.1,0,0,1,.854-.913,1,1,0,0,1,1.131.347c.222.3.521.431.8.157s.08-.589-.15-.823a2.012,2.012,0,0,0-1.691-.5,2.017,2.017,0,0,0-1.912,1.461A2.562,2.562,0,0,0,127.312-664.719Z" transform="translate(-74.992 -0.155)" fill="#fff"/>
    <path id="Path_4820" data-name="Path 4820" d="M308.743-309.794c-.346-.085-.695-.162-1.035-.266-.205-.063-.4-.184-.357-.444a.487.487,0,0,1,.43-.4,1.141,1.141,0,0,1,1.146.344c.236.271.53.42.8.09s.011-.591-.233-.8a2.458,2.458,0,0,0-2.558-.141,1.2,1.2,0,0,0-.556,1.183,1.03,1.03,0,0,0,.775.962c.457.152.928.259,1.395.381.245.064.445.2.438.46a.555.555,0,0,1-.471.525,1.135,1.135,0,0,1-1.277-.452c-.188-.26-.456-.441-.739-.172-.257.245-.141.55.057.792a1.915,1.915,0,0,0,1.588.6,3.659,3.659,0,0,0,.44,0c.85-.1,1.36-.572,1.4-1.27C310.02-309.186,309.679-309.566,308.743-309.794Z" transform="translate(-232.17 -312.26)" fill="#fff"/>
    <path id="Path_4821" data-name="Path 4821" d="M307.652-666.174c0,.524,0,1.049,0,1.573,0,.383.173.587.569.586.8,0,1.6,0,2.394,0,.291,0,.507-.08.5-.416-.01-.3-.222-.369-.48-.368-.525,0-1.051-.025-1.574.008-.429.027-.413-.22-.407-.511s-.062-.606.42-.564a10.7,10.7,0,0,0,1.133.005c.272-.005.595.015.6-.377s-.3-.4-.581-.4c-.4,0-.8-.023-1.2.005s-.378-.2-.379-.471-.012-.492.379-.468c.481.03.965.009,1.448.006.282,0,.58-.014.6-.392s-.284-.43-.562-.435c-.735-.014-1.47-.01-2.2,0-.464,0-.681.235-.661.714C307.667-667.181,307.651-666.677,307.652-666.174Z" transform="translate(-233.302 -0.624)" fill="#fff"/>
    <path id="Path_4822" data-name="Path 4822" d="M42.75-665.181a1.108,1.108,0,0,1-1.227-.427c-.187-.253-.435-.476-.731-.213-.325.289-.159.618.089.876a1.952,1.952,0,0,0,1.557.525,3.6,3.6,0,0,0,.44,0,1.368,1.368,0,0,0,1.353-1.243c.048-.782-.3-1.184-1.217-1.4-.347-.081-.7-.159-1.036-.261-.2-.061-.412-.177-.372-.433a.5.5,0,0,1,.419-.418,1.119,1.119,0,0,1,1.148.331c.232.262.515.452.793.121.3-.352.014-.625-.251-.842a2.43,2.43,0,0,0-2.5-.127,1.213,1.213,0,0,0-.563,1.24,1,1,0,0,0,.763.9c.456.153.927.263,1.392.391.241.066.438.19.426.467A.545.545,0,0,1,42.75-665.181Z" transform="translate(0 -0.121)" fill="#fff"/>
    <path id="Path_4823" data-name="Path 4823" d="M249.753-307.868c-.419-.011-.84-.02-1.258.005-.362.022-.466-.117-.456-.47.023-.859,0-1.719.01-2.578,0-.345-.093-.579-.484-.577s-.513.238-.517.573c-.007.545,0,1.09,0,1.635s-.007,1.09,0,1.635c.007.357.15.6.562.6.713-.005,1.427,0,2.14,0,.265,0,.471-.109.49-.379C250.266-307.743,250.033-307.861,249.753-307.868Z" transform="translate(-180.356 -312.455)" fill="#fff"/>
    <path id="Path_4824" data-name="Path 4824" d="M75.633-664.212c.362-.009.486-.263.482-.6-.007-.566,0-1.132,0-1.7,0-.524,0-1.048,0-1.572,0-.354-.08-.64-.5-.644s-.512.269-.509.63c.007,1.09.009,2.179,0,3.269C75.1-664.451,75.24-664.2,75.633-664.212Z" transform="translate(-30.136 -0.339)" fill="#fff"/>
    <path id="Path_4825" data-name="Path 4825" d="M64.273-597.08h0a1.078,1.078,0,0,0,.8-.486,1.733,1.733,0,0,0,.448-1.522,1.565,1.565,0,0,0-1.255-1.378,2.1,2.1,0,0,0-.805-.114L53.5-600.6c-.119,0-.256-.046-.339.093a.259.259,0,0,0,.053.046h-.032l-.021-.046c-.114-.024-.172-.189-.321-.127h0l-.427-.09a16.38,16.38,0,0,1-2.273-.88h0a14.619,14.619,0,0,1-1.971-1.812l0,0-.313-.465a8.389,8.389,0,0,1-1.136-3.16,11.605,11.605,0,0,1,.149-2.645h0l.511-1.368h0l.507-.88,1.12-1.3h0l1.138-.874h0a10.577,10.577,0,0,1,2.652-1h0a2.31,2.31,0,0,0,.924-.106h0l4.5-.007h0q4.9.013,9.791.025c.122,0,.257.01.311-.144h0c.39-1.41.77-2.823,1.175-4.228.1-.357-.093-.328-.316-.328l-12.972.022H47.751a18.418,18.418,0,0,0-2.91.047,1.072,1.072,0,0,0-.265.053,1.528,1.528,0,0,0-.9.244,2.337,2.337,0,0,0-.98.518,2.678,2.678,0,0,0-1.025.97,2.843,2.843,0,0,0-.728,1.3h0a2.183,2.183,0,0,0-.255,1.134,16.522,16.522,0,0,0-.02,2.651,3.148,3.148,0,0,0,0,1h0c-.055,1.178-.059,2.357,0,3.535h0a3.111,3.111,0,0,0,0,1.008,6.68,6.68,0,0,0,0,1.509,7.916,7.916,0,0,0,0,1.641,10.524,10.524,0,0,0,0,1.894h0c0,5.082-.037,10.164,0,15.246a4.45,4.45,0,0,0,2.373,3.842c.393.243.489.162.6-.265.849-3.245,1.739-6.48,2.59-9.725a27.989,27.989,0,0,0,.9-3.652h.008c.208-.018.416-.053.624-.053q7.847-.011,15.694-.017A1.608,1.608,0,0,0,64.273-597.08Zm-4.655-3.258-.008-.015h.015Zm.075-15.022.033-.026c0,.009.008.017.011.026Zm2.5,18.084c.014.026.027.053.04.079l-.1-.007A.166.166,0,0,1,62.192-597.276Z" transform="translate(-0.013 -42.986)" fill="#fff"/>
    <path id="Path_4826" data-name="Path 4826" d="M271.823-666.19c0,.567-.006,1.133,0,1.7a.465.465,0,0,0,.523.5.457.457,0,0,0,.478-.479c.008-.146,0-.294,0-.44,0-.94,0-.929.921-.866a.683.683,0,0,1,.723.762,1.262,1.262,0,0,0,.155.789.5.5,0,0,0,.546.226c.169-.042.38-.145.35-.31-.1-.565.05-1.2-.344-1.683-.169-.206-.149-.237.024-.395a1.1,1.1,0,0,0,.3-1.263,1.136,1.136,0,0,0-.993-.756,11.668,11.668,0,0,0-2.075-.051c-.432.006-.632.252-.616.7C271.837-667.24,271.823-666.714,271.823-666.19Zm1.009-1.33c.059-.155.167-.17.293-.17.273,0,.546.006.818.021.351.02.632.157.629.554s-.274.586-.658.611c-.126.008-.252,0-.378,0C272.883-666.5,272.6-666.913,272.832-667.52Z" transform="translate(-202.001 -0.558)" fill="#fff"/>
    <path id="Path_4827" data-name="Path 4827" d="M106.554-311.685a2.086,2.086,0,0,0-2.3,2.182,2.1,2.1,0,0,0,2.149,2.4,2.142,2.142,0,0,0,2.309-2.263A2.069,2.069,0,0,0,106.554-311.685Zm-.106,3.78c-.747-.024-1.2-.618-1.192-1.547.013-.886.482-1.429,1.235-1.429s1.219.554,1.224,1.436C107.719-308.49,107.218-307.881,106.447-307.905Z" transform="translate(-55.602 -312.282)" fill="#fff"/>
    <path id="Path_4828" data-name="Path 4828" d="M233.236-664.4a2.111,2.111,0,0,0,2.241-2.318,2.04,2.04,0,0,0-2.212-2.251,2.078,2.078,0,0,0-2.215,2.211A2.078,2.078,0,0,0,233.236-664.4Zm.04-3.77c.742,0,1.229.576,1.221,1.451-.008.935-.485,1.53-1.228,1.532-.758,0-1.206-.567-1.2-1.53C232.067-667.616,232.526-668.167,233.275-668.169Z" transform="translate(-166.382 -0.131)" fill="#fff"/>
    <path id="Path_4829" data-name="Path 4829" d="M177.18-311.686a2.067,2.067,0,0,0-2.206,2.265,2.062,2.062,0,0,0,2.22,2.313,2.129,2.129,0,0,0,2.216-2.344A2.048,2.048,0,0,0,177.18-311.686Zm-.043,3.78c-.749-.033-1.171-.605-1.156-1.567.014-.9.474-1.421,1.238-1.41s1.208.57,1.182,1.519S177.9-307.872,177.137-307.906Z" transform="translate(-117.39 -312.282)" fill="#fff"/>
    <path id="Path_4830" data-name="Path 4830" d="M199.356-664.032c.445.013.546-.3.533-.685-.006-.189.016-.38,0-.566-.037-.323.074-.453.414-.439a5.443,5.443,0,0,0,1.129-.045,1.285,1.285,0,0,0,1.079-1.345,1.253,1.253,0,0,0-1.035-1.312,8.012,8.012,0,0,0-2.071-.063.507.507,0,0,0-.524.578c.009.566,0,1.133,0,1.7,0,.5.012,1.007,0,1.51C198.865-664.338,198.953-664.043,199.356-664.032Zm.518-3.077c.009-.4.017-.7.551-.627.448.063,1.036-.028,1.058.608s-.517.654-1.038.63C199.936-666.363,199.864-666.65,199.874-667.109Z" transform="translate(-138.273 -0.521)" fill="#fff"/>
    <path id="Path_4831" data-name="Path 4831" d="M42.988-311.011c-.544-.033-1.093,0-1.639-.01-.443-.007-.663.188-.657.64.007.525,0,1.05,0,1.575q0,.85,0,1.7c0,.319.145.538.472.554.364.017.515-.22.544-.557.03-.353-.156-.8.075-1.036.255-.257.721-.054,1.091-.1.042-.005.084-.008.126-.012a1.314,1.314,0,0,0,1.326-1.384A1.3,1.3,0,0,0,42.988-311.011Zm-.7,1.991c-.375.071-.655,0-.594-.563.041-.38-.067-.768.553-.673.444.068,1.012-.065,1.04.6C43.317-309.032,42.819-309.015,42.292-309.02Z" transform="translate(-0.07 -312.859)" fill="#fff"/>
    <path id="Path_4832" data-name="Path 4832" d="M163.957-664.575c.345.112.534-.076.657-.4.074-.2.052-.522.339-.548a5.9,5.9,0,0,1,1.318.007c.323.044.256.431.375.656a.468.468,0,0,0,.612.285c.218-.071.35-.224.316-.593-.43-1.165-.867-2.453-1.388-3.7-.169-.406-1.014-.274-1.189.169-.445,1.127-.863,2.265-1.282,3.4C163.605-665.008,163.582-664.7,163.957-664.575Zm1.377-2.584c.077-.234.168-.464.294-.81l.542,1.688C165.02-666.194,165.019-666.195,165.335-667.159Z" transform="translate(-107.492 0)" fill="#fff"/>
  </g>
</svg>
